# xmcd
#
# Track frame offsets: 
#        150
#        16035
#        30177
#        60070
#        80102
#        84535
#        101420
#        120437
#        140262
#        164475
#        176937
#        196117
#        220972
#        236792
#
# Disc length: 3351 seconds
#
# Revision: 7
# Processed by: cddbd v1.5.2PL0 Copyright (c) Steve Scherf et al.
# Submitted via: ExactAudioCopyFreeDBPlugin 1.0
#
DISCID=ab0d150e
DTITLE=Compilation - Blues Down Deep - The Songs Of Janis Joplin
DYEAR=1996
DGENRE=Blues
TTITLE0=Cathy Ridchardson and Sugar Blue - Try - Cathy Ridchardson and Sug
TTITLE0=ar Blue
TTITLE1=Tad Robinson - Move Over - Tad Robinson
TTITLE2=Etta James - Ball And Chain - Etta James
TTITLE3=Otis Clay - Piece Of My Heart - Otis Clay
TTITLE4=Friend'n'Fellow - Longin' - Friend'n'Fellow
TTITLE5=Friend'n'Fellow - Me And Bobby McGee - Friend'n'Fellow
TTITLE6=Tracy Nelson - What Good Can Drinking Go - Tracy Nelson
TTITLE7=Lonnie Brooks - Maybe - Lonnie Brooks
TTITLE8=Lou Ann Barton - One Good Man - Lou Ann Barton
TTITLE9=Paul Black - Down On Me - Paul Black
TTITLE10=Lynne Jordan - Turtle Blues - Lynne Jordan
TTITLE11=Koko Taylor - Get It While You Can - Koko Taylor
TTITLE12=Willie Kent - Trouble In Mind - Willie Kent
TTITLE13=Taj Mahal - Mercedes Benz - Taj Mahal
EXTD=
EXTT0=
EXTT1=
EXTT2=
EXTT3=
EXTT4=
EXTT5=
EXTT6=
EXTT7=
EXTT8=
EXTT9=
EXTT10=
EXTT11=
EXTT12=
EXTT13=
PLAYORDER=
